<?xml version="1.0" encoding="UTF-8"?>
<svg version="1.1" xmlns="http://www.w3.org/2000/svg" width="16" height="16">
<path d="M0 0 C5.28 0 10.56 0 16 0 C16 5.28 16 10.56 16 16 C10.72 16 5.44 16 0 16 C0 10.72 0 5.44 0 0 Z " fill="#D6D3D8" transform="translate(0,0)"/>
<path d="M0 0 C5.28 0 10.56 0 16 0 C16 1.32 16 2.64 16 4 C15.01 4.495 15.01 4.495 14 5 C12.86649466 7.01669827 12.86649466 7.01669827 12 9 C12 6.36 12 3.72 12 1 C9.36 1 6.72 1 4 1 C4 3.64 4 6.28 4 9 C3.01 9 2.02 9 1 9 C1 9.99 1 10.98 1 12 C1.99 12 2.98 12 4 12 C4 12.99 4 13.98 4 15 C4.99 14.67 5.98 14.34 7 14 C8.56118428 13.93259135 10.1250252 13.91485544 11.6875 13.9375 C12.89986328 13.95103516 12.89986328 13.95103516 14.13671875 13.96484375 C15.05904297 13.98224609 15.05904297 13.98224609 16 14 C16 14.66 16 15.32 16 16 C10.72 16 5.44 16 0 16 C0 10.72 0 5.44 0 0 Z " fill="#BD7EB8" transform="translate(0,0)"/>
<path d="M0 0 C2.31 0 4.62 0 7 0 C7 1.65 7 3.3 7 5 C4.69 5.33 2.38 5.66 0 6 C0 4.02 0 2.04 0 0 Z " fill="#F6F4FB" transform="translate(4,2)"/>
<path d="M0 0 C0.99 0.66 1.98 1.32 3 2 C3.1875 4.625 3.1875 4.625 3 7 C2.01 7 1.02 7 0 7 C0 6.01 0 5.02 0 4 C-0.99 4 -1.98 4 -3 4 C-3 3.01 -3 2.02 -3 1 C-2.01 0.67 -1.02 0.34 0 0 Z " fill="#F3D8E5" transform="translate(4,8)"/>
<path d="M0 0 C1.32 0 2.64 0 4 0 C4 1.32 4 2.64 4 4 C3.01 4.495 3.01 4.495 2 5 C1.34 6.32 0.68 7.64 0 9 C0 6.03 0 3.06 0 0 Z " fill="#414F50" transform="translate(12,0)"/>
<path d="M0 0 C0.99 0 1.98 0 3 0 C3 1.98 3 3.96 3 6 C2.01 6 1.02 6 0 6 C0 4.02 0 2.04 0 0 Z " fill="#C9E3C8" transform="translate(0,0)"/>
</svg>
